<?xml version="1.0" standalone="no"?>
<!DOCTYPE svg PUBLIC "-//W3C//DTD SVG 20010904//EN"
 "http://www.w3.org/TR/2001/REC-SVG-20010904/DTD/svg10.dtd">
<svg version="1.0" xmlns="http://www.w3.org/2000/svg"
 width="1024.000000pt" height="1024.000000pt" viewBox="0 0 1024.000000 1024.000000"
 preserveAspectRatio="xMidYMid meet">
<metadata>
Created by potrace 1.14, written by Peter Selinger 2001-2017
</metadata>
<g transform="translate(0.000000,1024.000000) scale(0.100000,-0.100000)"
fill="#000000" stroke="none">
<path d="M0 5120 l0 -5120 5120 0 5120 0 0 5120 0 5120 -5120 0 -5120 0 0
-5120z m7795 -2177 c67 -23 135 -93 163 -169 42 -115 38 -324 -8 -413 -27 -54
-67 -98 -114 -129 -38 -25 -49 -27 -146 -27 -98 0 -108 2 -147 27 -64 42 -118
116 -138 191 -23 86 -17 279 10 347 34 84 98 149 174 176 51 18 149 17 206 -3z"/>
<path d="M7604 2871 c-87 -39 -124 -127 -124 -290 0 -221 76 -322 233 -309
133 11 198 137 184 354 -7 104 -28 166 -71 209 -56 56 -147 70 -222 36z"/>
</g>
</svg>
